<?xml version="1.0" encoding="utf-8"?>
<!-- Generator: Adobe Illustrator 23.0.3, SVG Export Plug-In . SVG Version: 6.00 Build 0)  -->
<svg version="1.1" id="Layer_1" xmlns="http://www.w3.org/2000/svg" xmlns:xlink="http://www.w3.org/1999/xlink" x="0px" y="0px"
	 viewBox="0 0 200 87.18" style="enable-background:new 0 0 200 87.18;" xml:space="preserve">
<style type="text/css">
	.st0{fill:#0E84A3;}
	.st1{fill:#6AC5B6;}
	.st2{fill:#C32948;}
</style>
<g>
	<path class="st0" d="M27.09,2.59c2.32,1.36,4.13,3.28,5.41,5.76c1.28,2.49,1.92,5.31,1.92,8.51c0,3.13-0.64,5.91-1.92,8.32
		s-3.09,4.27-5.41,5.6c-2.32,1.34-4.98,2-7.95,2H9.48c-0.26,0-0.39,0.13-0.39,0.39v21.4c0,0.26-0.1,0.49-0.28,0.67
		s-0.4,0.28-0.67,0.28h-7.2c-0.26,0-0.49-0.08-0.67-0.28S0,54.82,0,54.55V1.49C0,1.22,0.1,1,0.28,0.82s0.4-0.28,0.67-0.28h18.11
		C22.08,0.54,24.75,1.22,27.09,2.59z M23.24,23.17c1.39-1.54,2.07-3.59,2.07-6.15c0-2.61-0.7-4.7-2.07-6.27
		c-1.39-1.57-3.23-2.35-5.52-2.35H9.48c-0.26,0-0.39,0.13-0.39,0.39v16.3c0,0.26,0.13,0.39,0.39,0.39h8.23
		C20.01,25.48,21.86,24.71,23.24,23.17z"/>
	<path class="st0" d="M51.23,55.14c-0.18-0.18-0.28-0.4-0.28-0.67V33.32l-0.08-0.47L37.31,1.72c-0.06-0.1-0.08-0.26-0.08-0.47
		c0-0.42,0.26-0.63,0.78-0.63h7.68c0.57,0,0.95,0.24,1.1,0.71l8.47,21.17c0.15,0.36,0.31,0.36,0.47,0l8.39-21.17
		c0.15-0.47,0.53-0.71,1.1-0.71h7.76c0.36,0,0.6,0.11,0.71,0.32c0.1,0.21,0.1,0.47,0,0.78L60.03,32.85l-0.08,0.47v21.17
		c0,0.26-0.1,0.49-0.28,0.67s-0.4,0.28-0.67,0.28h-7.13C51.63,55.42,51.41,55.33,51.23,55.14z"/>
	<path class="st0" d="M86.3,54.04c-2.61-1.39-4.63-3.34-6.08-5.84c-1.43-2.5-2.16-5.41-2.16-8.71V16.47c0-3.3,0.72-6.17,2.16-8.66
		c1.43-2.48,3.46-4.41,6.08-5.76C88.92,0.68,91.92,0,95.31,0s6.4,0.67,9.01,2c2.61,1.34,4.63,3.21,6.08,5.65
		c1.43,2.43,2.16,5.27,2.16,8.51v0.47c0,0.26-0.1,0.5-0.28,0.71s-0.4,0.32-0.67,0.32l-7.29,0.32c-0.63,0-0.95-0.32-0.95-0.95v-0.95
		c0-2.46-0.75-4.44-2.24-5.95c-1.49-1.52-3.43-2.27-5.84-2.27c-2.46,0-4.42,0.75-5.91,2.27c-1.49,1.52-2.24,3.5-2.24,5.95v24.06
		c0,2.46,0.75,4.42,2.24,5.92c1.49,1.49,3.46,2.24,5.91,2.24c2.41,0,4.35-0.75,5.84-2.24c1.49-1.49,2.24-3.46,2.24-5.92v-1.02
		c0-0.57,0.31-0.86,0.95-0.86l7.29,0.32c0.26,0,0.49,0.1,0.67,0.28c0.18,0.18,0.28,0.4,0.28,0.67v0.32c0,3.24-0.72,6.1-2.16,8.58
		c-1.43,2.49-3.46,4.39-6.08,5.72c-2.61,1.33-5.62,2-9.01,2C91.92,56.13,88.92,55.43,86.3,54.04z"/>
	<path class="st0" d="M128.12,54.08c-2.64-1.4-4.67-3.41-6.12-5.99c-1.43-2.59-2.16-5.58-2.16-8.97V17.01c0-3.34,0.72-6.31,2.16-8.9
		c1.43-2.59,3.48-4.59,6.12-5.99c2.64-1.4,5.69-2.11,9.14-2.11c3.5,0,6.56,0.71,9.21,2.11s4.69,3.41,6.15,5.99s2.2,5.55,2.2,8.9
		v22.11c0,3.39-0.74,6.38-2.2,8.97c-1.46,2.59-3.52,4.59-6.15,5.99c-2.64,1.4-5.72,2.11-9.21,2.11
		C133.81,56.21,130.76,55.5,128.12,54.08z M143.4,45.89c1.54-1.64,2.31-3.77,2.31-6.38V16.77c0-2.67-0.76-4.83-2.31-6.47
		s-3.59-2.48-6.15-2.48c-2.5,0-4.52,0.82-6.04,2.48c-1.52,1.64-2.27,3.8-2.27,6.47v22.74c0,2.61,0.75,4.74,2.27,6.38
		c1.52,1.64,3.53,2.48,6.04,2.48C139.81,48.37,141.86,47.55,143.4,45.89z"/>
	<path class="st0" d="M190.99,0.9c0.18-0.18,0.4-0.28,0.67-0.28h7.2c0.26,0,0.49,0.1,0.67,0.28c0.18,0.18,0.28,0.4,0.28,0.67v52.98
		c0,0.26-0.1,0.49-0.28,0.67c-0.18,0.18-0.4,0.28-0.67,0.28h-7.61c-0.47,0-0.83-0.24-1.1-0.71l-17.09-35.11
		c-0.11-0.15-0.21-0.22-0.32-0.19c-0.11,0.03-0.15,0.14-0.15,0.35l0.08,34.72c0,0.26-0.1,0.49-0.28,0.67
		c-0.18,0.18-0.4,0.28-0.67,0.28h-7.22c-0.26,0-0.49-0.08-0.67-0.28c-0.18-0.18-0.28-0.4-0.28-0.67V1.57c0-0.26,0.08-0.49,0.28-0.67
		c0.18-0.18,0.4-0.28,0.67-0.28h7.52c0.53,0,0.89,0.24,1.1,0.71l17.16,35.28c0.1,0.15,0.21,0.22,0.31,0.19
		c0.11-0.03,0.15-0.14,0.15-0.35l-0.08-34.88C190.71,1.31,190.81,1.08,190.99,0.9z"/>
</g>
<g>
	<path class="st1" d="M3.14,86.33c-0.99-0.51-1.75-1.25-2.29-2.2c-0.54-0.95-0.81-2.04-0.81-3.3v-9.39c0-1.89,0.6-3.41,1.79-4.55
		c1.2-1.13,2.77-1.7,4.73-1.7s3.53,0.56,4.71,1.68c1.18,1.13,1.78,2.61,1.78,4.46v0.25c0,0.1-0.03,0.18-0.08,0.25
		c-0.06,0.06-0.14,0.1-0.21,0.1l-2.32,0.13c-0.21,0-0.31-0.1-0.31-0.31v-0.46c0-1.06-0.32-1.92-0.97-2.57
		c-0.65-0.65-1.52-0.97-2.57-0.97s-1.92,0.32-2.59,0.97s-0.99,1.52-0.99,2.57v9.73c0,1.06,0.33,1.92,0.99,2.57
		c0.67,0.65,1.53,0.97,2.59,0.97s1.92-0.32,2.57-0.97c0.65-0.65,0.97-1.52,0.97-2.57v-0.43c0-0.21,0.1-0.31,0.31-0.31l2.32,0.13
		c0.21,0,0.31,0.1,0.31,0.31v0.21c0,1.22-0.26,2.31-0.81,3.24s-1.31,1.67-2.28,2.17C9,86.87,7.87,87.12,6.59,87.12
		C5.27,87.11,4.13,86.86,3.14,86.33z"/>
	<path class="st1" d="M28.47,86.59l-0.92-3.55c-0.01-0.06-0.07-0.1-0.15-0.1h-6.76c-0.1,0-0.15,0.03-0.15,0.1l-0.89,3.55
		c-0.01,0.18-0.14,0.28-0.33,0.28h-2.39c-0.1,0-0.18-0.03-0.24-0.1c-0.06-0.06-0.07-0.14-0.04-0.25l5.66-20.79
		c0.04-0.18,0.15-0.28,0.33-0.28h2.88c0.18,0,0.29,0.1,0.33,0.28l5.69,20.8l0.03,0.1c0,0.17-0.1,0.25-0.31,0.25h-2.42
		C28.62,86.87,28.51,86.78,28.47,86.59z M21.14,80.59c0.03,0.03,0.07,0.04,0.11,0.04h5.53c0.04,0,0.07-0.01,0.11-0.04
		c0.03-0.03,0.04-0.06,0.01-0.07l-2.85-11.07c-0.01-0.04-0.04-0.06-0.06-0.06s-0.04,0.01-0.06,0.06l-2.81,11.07
		C21.1,80.53,21.11,80.55,21.14,80.59z"/>
	<path class="st1" d="M46.82,65.46h2.32c0.21,0,0.31,0.1,0.31,0.31v20.8c0,0.21-0.1,0.31-0.31,0.31H46.7
		c-0.18,0-0.31-0.07-0.36-0.21l-7.37-14.84c-0.04-0.04-0.08-0.06-0.11-0.06s-0.04,0.03-0.04,0.1l0.03,14.71
		c0,0.21-0.1,0.31-0.31,0.31h-2.32c-0.21,0-0.31-0.1-0.31-0.31V65.76c0-0.21,0.1-0.31,0.31-0.31h2.45c0.18,0,0.31,0.07,0.36,0.21
		l7.34,14.84c0.04,0.04,0.07,0.06,0.11,0.06c0.03,0,0.04-0.03,0.04-0.1v-14.7C46.52,65.55,46.61,65.46,46.82,65.46z"/>
	<path class="st1" d="M65.72,86.59l-0.92-3.55c-0.01-0.06-0.07-0.1-0.15-0.1h-6.76c-0.1,0-0.15,0.03-0.15,0.1l-0.89,3.55
		c-0.01,0.18-0.14,0.28-0.33,0.28h-2.39c-0.1,0-0.18-0.03-0.24-0.1c-0.06-0.06-0.07-0.14-0.04-0.25l5.66-20.8
		c0.04-0.18,0.15-0.28,0.33-0.28h2.88c0.18,0,0.29,0.1,0.33,0.28l5.69,20.8l0.03,0.1c0,0.17-0.1,0.25-0.31,0.25h-2.41
		C65.87,86.87,65.76,86.78,65.72,86.59z M58.39,80.59c0.03,0.03,0.07,0.04,0.11,0.04h5.53c0.04,0,0.07-0.01,0.11-0.04
		c0.03-0.03,0.04-0.06,0.01-0.07l-2.85-11.07c-0.01-0.04-0.04-0.06-0.06-0.06c-0.01,0-0.04,0.01-0.06,0.06l-2.81,11.07
		C58.36,80.53,58.36,80.55,58.39,80.59z"/>
	<path class="st1" d="M73.16,86.57v-20.8c0-0.21,0.1-0.31,0.31-0.31h6.22c1.89,0,3.41,0.54,4.55,1.63c1.13,1.08,1.7,2.52,1.7,4.31
		v9.54c0,1.79-0.57,3.23-1.7,4.31c-1.13,1.08-2.64,1.63-4.55,1.63h-6.22C73.26,86.87,73.16,86.76,73.16,86.57z M76.22,84.33
		l3.52-0.03c0.97,0,1.75-0.33,2.34-1c0.58-0.67,0.88-1.56,0.9-2.67V71.7c0-1.14-0.29-2.04-0.89-2.71S80.7,68,79.7,68h-3.49
		c-0.08,0-0.13,0.04-0.13,0.13v16.09C76.1,84.29,76.14,84.33,76.22,84.33z"/>
	<path class="st1" d="M100.9,86.59l-0.92-3.55c-0.01-0.06-0.07-0.1-0.15-0.1h-6.76c-0.1,0-0.15,0.03-0.15,0.1l-0.89,3.55
		c-0.01,0.18-0.14,0.28-0.33,0.28h-2.39c-0.1,0-0.18-0.03-0.24-0.1c-0.06-0.06-0.07-0.14-0.04-0.25l5.66-20.8
		c0.04-0.18,0.15-0.28,0.33-0.28h2.88c0.18,0,0.29,0.1,0.33,0.28l5.69,20.8l0.03,0.1c0,0.17-0.1,0.25-0.31,0.25h-2.41
		C101.06,86.87,100.95,86.78,100.9,86.59z M93.58,80.59c0.03,0.03,0.07,0.04,0.11,0.04h5.53c0.04,0,0.07-0.01,0.11-0.04
		c0.03-0.03,0.04-0.06,0.01-0.07L96.5,69.45c-0.01-0.04-0.04-0.06-0.06-0.06c-0.01,0-0.04,0.01-0.06,0.06l-2.81,11.07
		C93.55,80.53,93.55,80.55,93.58,80.59z"/>
	<path class="st1" d="M148.7,84.33h8.11c0.21,0,0.31,0.1,0.31,0.31v1.93c0,0.21-0.1,0.31-0.31,0.31h-11.53
		c-0.21,0-0.31-0.1-0.31-0.31v-1.96c0-0.14,0.04-0.26,0.13-0.36c2.63-3.38,4.69-6.1,6.15-8.16c1.57-2.18,2.35-3.92,2.35-5.23
		c0-0.93-0.26-1.68-0.79-2.25c-0.53-0.56-1.24-0.85-2.11-0.85c-0.86,0-1.54,0.28-2.06,0.85c-0.51,0.57-0.76,1.29-0.75,2.21v1.07
		c0,0.21-0.1,0.31-0.31,0.31h-2.35c-0.21,0-0.31-0.1-0.31-0.31v-1.32c0.04-1.61,0.61-2.91,1.7-3.88c1.08-0.97,2.48-1.47,4.14-1.47
		c1.17,0,2.18,0.24,3.06,0.72c0.88,0.49,1.56,1.14,2.03,2s0.72,1.82,0.72,2.91c0,1.82-0.82,3.88-2.45,6.17
		c-0.93,1.32-2.48,3.34-4.59,6.02l-0.89,1.13C148.57,84.29,148.59,84.33,148.7,84.33z"/>
	<path class="st1" d="M163.05,85.52c-1.11-1.1-1.67-2.59-1.67-4.44v-9.85c0-1.84,0.56-3.31,1.67-4.41c1.11-1.1,2.6-1.65,4.45-1.65
		s3.35,0.56,4.46,1.65c1.13,1.1,1.68,2.57,1.68,4.41v9.85c0,1.85-0.56,3.34-1.68,4.44s-2.61,1.65-4.46,1.65
		S164.16,86.62,163.05,85.52z M169.84,83.7c0.58-0.63,0.89-1.45,0.89-2.46V71.12c0-1.02-0.29-1.84-0.89-2.46
		c-0.6-0.63-1.36-0.93-2.32-0.93s-1.72,0.31-2.31,0.93c-0.58,0.63-0.88,1.45-0.88,2.46v10.12c0,1.02,0.29,1.84,0.88,2.46
		s1.35,0.93,2.31,0.93C168.46,84.63,169.24,84.33,169.84,83.7z"/>
	<path class="st1" d="M181.18,65.46h2.42c0.21,0,0.31,0.1,0.31,0.31v20.8c0,0.21-0.1,0.31-0.31,0.31h-2.32
		c-0.21,0-0.31-0.1-0.31-0.31V68.64c0-0.04-0.01-0.07-0.04-0.11c-0.03-0.03-0.07-0.04-0.11-0.01l-2.96,0.95l-0.13,0.03
		c-0.13,0-0.21-0.1-0.25-0.28l-0.13-1.74c0-0.17,0.07-0.29,0.21-0.36l3.21-1.56C180.91,65.48,181.05,65.46,181.18,65.46z"/>
	<path class="st1" d="M200,72.01v9.69c0,1.65-0.53,2.96-1.59,3.95c-1.06,0.99-2.45,1.47-4.16,1.47c-1.65,0-2.99-0.49-4.01-1.47
		c-1.02-0.99-1.53-2.27-1.53-3.85v-0.64c0-0.21,0.1-0.31,0.31-0.31h2.32c0.21,0,0.31,0.1,0.31,0.31v0.43c0,0.88,0.25,1.59,0.74,2.14
		s1.11,0.82,1.86,0.82c0.83,0,1.52-0.28,2.03-0.85c0.51-0.56,0.78-1.29,0.78-2.21V77.6c0-0.04-0.01-0.07-0.04-0.1
		c-0.03-0.01-0.07-0.01-0.11,0.03c-0.79,0.93-1.85,1.4-3.18,1.4c-1.24,0-2.28-0.32-3.12-0.97c-0.83-0.65-1.43-1.54-1.81-2.7
		c-0.32-0.83-0.49-1.89-0.49-3.18c0-1.14,0.11-2.06,0.33-2.75c0.32-1.32,0.96-2.35,1.89-3.06c0.93-0.71,2.13-1.07,3.57-1.07
		c1.32,0,2.45,0.32,3.37,0.96c0.92,0.64,1.56,1.57,1.93,2.77C199.81,69.8,200,70.82,200,72.01z M195.83,75.96
		c0.45-0.36,0.75-0.86,0.93-1.52c0.21-0.64,0.31-1.4,0.31-2.32c0-0.83-0.07-1.54-0.21-2.11c-0.18-0.71-0.5-1.27-0.96-1.65
		s-1.04-0.58-1.72-0.58c-0.67,0-1.25,0.19-1.71,0.6c-0.47,0.4-0.79,0.97-0.97,1.72c-0.14,0.67-0.21,1.36-0.21,2.04
		c0,0.88,0.1,1.65,0.31,2.32c0.43,1.35,1.29,2.02,2.6,2.02C194.83,76.5,195.38,76.32,195.83,75.96z"/>
</g>
<path class="st2" d="M124.16,64.8l-1.79,3.35c-0.21,0.36-0.57,0.33-0.93,0.13l-1.29-0.67l0.97,5.15c0.21,0.95-0.44,0.95-0.78,0.53
	l-2.27-2.54l-0.36,1.29c-0.04,0.17-0.22,0.35-0.51,0.31l-2.86-0.6l0.75,2.74c0.17,0.61,0.29,0.86-0.17,1.03L113.88,76l4.94,4.01
	c0.19,0.15,0.29,0.43,0.22,0.67l-0.43,1.42c1.7-0.19,3.23-0.49,4.92-0.67c0.15-0.01,0.4,0.24,0.4,0.4l-0.22,5.2h0.82l-0.13-5.19
	c0-0.18,0.22-0.43,0.38-0.42c1.7,0.18,3.23,0.47,4.92,0.67l-0.42-1.43c-0.07-0.25,0.03-0.51,0.22-0.67l4.94-4.01l-1.03-0.49
	c-0.45-0.17-0.32-0.42-0.17-1.03l0.75-2.74l-2.86,0.6c-0.28,0.04-0.47-0.14-0.51-0.31l-0.36-1.29l-2.27,2.54
	c-0.32,0.4-0.97,0.4-0.78-0.53l0.97-5.15l-1.29,0.67c-0.36,0.21-0.74,0.24-0.93-0.13L124.16,64.8z"/>
</svg>
