<?xml version="1.0" encoding="utf-8"?>
<!-- Generator: Adobe Illustrator 23.0.3, SVG Export Plug-In . SVG Version: 6.00 Build 0)  -->
<svg version="1.1" id="Layer_1" xmlns="http://www.w3.org/2000/svg" xmlns:xlink="http://www.w3.org/1999/xlink" x="0px" y="0px"
	 viewBox="0 0 200 37.47" style="enable-background:new 0 0 200 37.47;" xml:space="preserve">
<style type="text/css">
	.st0{fill:#0E84A3;}
	.st1{fill:#6AC5B6;}
	.st2{fill:#C32948;}
</style>
<g>
	<path class="st0" d="M18.06,1.72c1.55,0.91,2.75,2.19,3.61,3.84c0.85,1.66,1.28,3.55,1.28,5.67c0,2.09-0.43,3.94-1.28,5.54
		c-0.85,1.6-2.06,2.85-3.61,3.74s-3.32,1.33-5.3,1.33H6.32c-0.17,0-0.26,0.09-0.26,0.26v14.27c0,0.17-0.06,0.32-0.18,0.44
		C5.76,36.94,5.61,37,5.44,37H0.63c-0.17,0-0.32-0.06-0.44-0.18C0.06,36.7,0,36.55,0,36.37V0.99c0-0.17,0.06-0.32,0.18-0.44
		C0.3,0.43,0.45,0.37,0.63,0.37H12.7C14.72,0.37,16.51,0.82,18.06,1.72z M15.5,15.44c0.92-1.03,1.38-2.39,1.38-4.1
		c0-1.74-0.46-3.14-1.38-4.18c-0.92-1.05-2.15-1.57-3.68-1.57H6.32c-0.17,0-0.26,0.09-0.26,0.26v10.87c0,0.17,0.09,0.26,0.26,0.26
		h5.49C13.34,16.98,14.57,16.47,15.5,15.44z"/>
	<path class="st0" d="M34.15,36.77c-0.12-0.12-0.18-0.27-0.18-0.44V22.21l-0.05-0.31L24.88,1.15c-0.04-0.07-0.05-0.17-0.05-0.31
		c0-0.28,0.17-0.42,0.52-0.42h5.12c0.38,0,0.63,0.16,0.73,0.47L36.84,15c0.1,0.24,0.21,0.24,0.31,0l5.59-14.11
		c0.1-0.31,0.35-0.47,0.73-0.47h5.17c0.24,0,0.4,0.07,0.47,0.21c0.07,0.14,0.07,0.31,0,0.52L40.03,21.9l-0.05,0.31v14.11
		c0,0.17-0.06,0.32-0.18,0.44c-0.12,0.12-0.27,0.18-0.44,0.18H34.6C34.42,36.95,34.27,36.89,34.15,36.77z"/>
	<path class="st0" d="M57.54,36.03c-1.74-0.92-3.09-2.22-4.05-3.89c-0.96-1.67-1.44-3.61-1.44-5.8V10.97c0-2.2,0.48-4.12,1.44-5.77
		c0.96-1.65,2.31-2.93,4.05-3.84C59.28,0.45,61.28,0,63.55,0c2.26,0,4.27,0.44,6.01,1.33c1.74,0.89,3.09,2.14,4.05,3.76
		c0.96,1.62,1.44,3.51,1.44,5.67v0.31c0,0.17-0.06,0.33-0.18,0.47c-0.12,0.14-0.27,0.21-0.44,0.21l-4.86,0.21
		c-0.42,0-0.63-0.21-0.63-0.63v-0.63c0-1.64-0.5-2.96-1.49-3.97c-0.99-1.01-2.29-1.52-3.89-1.52c-1.64,0-2.95,0.51-3.95,1.52
		c-0.99,1.01-1.49,2.33-1.49,3.97v16.04c0,1.64,0.5,2.95,1.49,3.95c0.99,0.99,2.31,1.49,3.95,1.49c1.6,0,2.9-0.5,3.89-1.49
		s1.49-2.31,1.49-3.95v-0.68c0-0.38,0.21-0.57,0.63-0.57l4.86,0.21c0.17,0,0.32,0.06,0.44,0.18c0.12,0.12,0.18,0.27,0.18,0.44v0.21
		c0,2.16-0.48,4.07-1.44,5.72c-0.96,1.66-2.31,2.93-4.05,3.82c-1.74,0.89-3.75,1.33-6.01,1.33C61.28,37.42,59.28,36.96,57.54,36.03z
		"/>
	<path class="st0" d="M85.42,36.06c-1.76-0.94-3.12-2.27-4.08-4c-0.96-1.72-1.44-3.72-1.44-5.98V11.34c0-2.23,0.48-4.21,1.44-5.93
		c0.96-1.72,2.32-3.06,4.08-4C87.18,0.47,89.21,0,91.51,0c2.33,0,4.38,0.47,6.14,1.41c1.76,0.94,3.13,2.27,4.1,4
		c0.97,1.72,1.46,3.7,1.46,5.93v14.74c0,2.27-0.49,4.26-1.46,5.98c-0.98,1.72-2.34,3.06-4.1,4c-1.76,0.94-3.81,1.41-6.14,1.41
		C89.21,37.47,87.18,37,85.42,36.06z M95.61,30.6c1.03-1.1,1.54-2.52,1.54-4.26V11.18c0-1.78-0.51-3.21-1.54-4.31
		c-1.03-1.1-2.4-1.65-4.1-1.65c-1.67,0-3.01,0.55-4.02,1.65c-1.01,1.1-1.52,2.53-1.52,4.31v15.16c0,1.74,0.5,3.16,1.52,4.26
		c1.01,1.1,2.35,1.65,4.02,1.65C93.21,32.24,94.58,31.7,95.61,30.6z"/>
	<path class="st0" d="M127.33,0.6c0.12-0.12,0.27-0.18,0.44-0.18h4.81c0.17,0,0.32,0.06,0.44,0.18c0.12,0.12,0.18,0.27,0.18,0.44
		v35.33c0,0.17-0.06,0.32-0.18,0.44c-0.12,0.12-0.27,0.18-0.44,0.18h-5.07c-0.31,0-0.56-0.16-0.73-0.47l-11.39-23.41
		c-0.07-0.1-0.14-0.15-0.21-0.13c-0.07,0.02-0.1,0.1-0.1,0.24l0.05,23.15c0,0.17-0.06,0.32-0.18,0.44
		c-0.12,0.12-0.27,0.18-0.44,0.18h-4.81c-0.17,0-0.32-0.06-0.44-0.18c-0.12-0.12-0.18-0.27-0.18-0.44V1.05
		c0-0.17,0.06-0.32,0.18-0.44c0.12-0.12,0.27-0.18,0.44-0.18h5.02c0.35,0,0.59,0.16,0.73,0.47l11.44,23.52
		c0.07,0.1,0.14,0.15,0.21,0.13c0.07-0.02,0.1-0.1,0.1-0.24l-0.05-23.26C127.15,0.87,127.21,0.72,127.33,0.6z"/>
	<path class="st1" d="M154.72,34.68c-1.86-1.83-2.8-4.24-2.8-7.24V9.93c0-3,0.93-5.4,2.8-7.21c1.86-1.81,4.33-2.72,7.4-2.72
		c3.1,0,5.58,0.91,7.45,2.72c1.86,1.81,2.8,4.2,2.8,7.16v0.47c0,0.17-0.05,0.31-0.16,0.42c-0.1,0.1-0.23,0.16-0.37,0.16l-1.73,0.1
		c-0.35,0-0.52-0.17-0.52-0.52V9.77c0-2.19-0.69-3.96-2.06-5.3c-1.38-1.34-3.18-2.01-5.41-2.01c-2.23,0-4.02,0.67-5.38,2.01
		c-1.36,1.34-2.04,3.11-2.04,5.3v17.82c0,2.23,0.68,4.02,2.04,5.36c1.36,1.34,3.15,2.01,5.38,2.01c2.26,0,4.08-0.67,5.43-2.01
		c1.36-1.34,2.04-3.13,2.04-5.36v-0.63c0-0.35,0.17-0.52,0.52-0.52l1.73,0.1c0.35,0,0.52,0.17,0.52,0.52v0.42c0,3-0.93,5.4-2.8,7.21
		c-1.86,1.81-4.35,2.72-7.45,2.72C159.05,37.42,156.58,36.5,154.72,34.68z"/>
	<path class="st1" d="M197.18,36.53l-1.88-6.9c-0.04-0.1-0.12-0.16-0.26-0.16h-13.17c-0.14,0-0.23,0.05-0.26,0.16l-1.83,6.9
		c-0.07,0.31-0.26,0.47-0.57,0.47h-1.78c-0.17,0-0.31-0.05-0.39-0.16c-0.09-0.1-0.11-0.24-0.08-0.42l9.83-35.59
		c0.07-0.28,0.26-0.42,0.57-0.42h2.19c0.31,0,0.5,0.14,0.57,0.42l9.83,35.59l0.05,0.16c0,0.28-0.17,0.42-0.52,0.42h-1.73
		C197.44,37,197.25,36.84,197.18,36.53z M182.36,27.1c0.05,0.05,0.11,0.08,0.18,0.08h11.81c0.07,0,0.13-0.03,0.18-0.08
		c0.05-0.05,0.06-0.1,0.03-0.13l-6.01-22.47c-0.04-0.07-0.08-0.1-0.13-0.1c-0.05,0-0.1,0.04-0.13,0.1l-5.96,22.47
		C182.3,27,182.31,27.05,182.36,27.1z"/>
</g>
<path class="st2" d="M142.71,13.39l-1.19,2.22c-0.14,0.24-0.38,0.22-0.62,0.08l-0.86-0.45l0.64,3.41c0.14,0.62-0.3,0.62-0.51,0.35
	l-1.51-1.69l-0.24,0.86c-0.03,0.11-0.15,0.23-0.34,0.2l-1.9-0.4l0.5,1.82c0.11,0.4,0.19,0.57-0.11,0.68l-0.68,0.32l3.28,2.66
	c0.13,0.1,0.2,0.28,0.15,0.45l-0.29,0.94c1.13-0.13,2.14-0.33,3.27-0.45c0.1-0.01,0.27,0.15,0.27,0.27l-0.15,3.45h0.55l-0.09-3.44
	c0-0.12,0.15-0.29,0.25-0.28c1.13,0.12,2.14,0.32,3.27,0.45l-0.29-0.94c-0.05-0.16,0.02-0.35,0.15-0.45l3.28-2.66l-0.68-0.32
	c-0.3-0.11-0.22-0.27-0.11-0.68l0.5-1.82l-1.9,0.4c-0.19,0.03-0.31-0.09-0.34-0.2l-0.24-0.86l-1.51,1.69
	c-0.21,0.27-0.65,0.27-0.51-0.35l0.64-3.41l-0.86,0.45c-0.24,0.13-0.48,0.16-0.62-0.08L142.71,13.39z"/>
</svg>
